<mxfile host="app.diagrams.net" modified="2024-01-29T06:05:57.483Z" agent="Mozilla/5.0 (Windows NT 10.0; Win64; x64) AppleWebKit/537.36 (KHTML, like Gecko) Chrome/120.0.0.0 Safari/537.36" etag="FmnqufOeu2nkJAUxKdis" version="23.0.2" type="device">
  <diagram name="페이지-1" id="zCx_aAQpFd61OjQZ63V8">
    <mxGraphModel dx="2186" dy="1320" grid="0" gridSize="10" guides="1" tooltips="1" connect="1" arrows="1" fold="1" page="0" pageScale="1" pageWidth="827" pageHeight="1169" math="0" shadow="0">
      <root>
        <mxCell id="0" />
        <mxCell id="1" parent="0" />
        <mxCell id="chtsY7g3nfTkQcAFf8iY-31" style="edgeStyle=none;curved=1;rounded=0;orthogonalLoop=1;jettySize=auto;html=1;exitX=0.5;exitY=1;exitDx=0;exitDy=0;entryX=0.5;entryY=0;entryDx=0;entryDy=0;fontSize=12;startSize=8;endSize=8;strokeWidth=3;strokeColor=#000000;" parent="1" source="sSrPACaevmgML470upXC-19" target="chtsY7g3nfTkQcAFf8iY-5" edge="1">
          <mxGeometry relative="1" as="geometry">
            <mxPoint x="500" y="-94" as="sourcePoint" />
          </mxGeometry>
        </mxCell>
        <mxCell id="chtsY7g3nfTkQcAFf8iY-32" style="edgeStyle=none;curved=1;rounded=0;orthogonalLoop=1;jettySize=auto;html=1;exitX=0.5;exitY=1;exitDx=0;exitDy=0;entryX=0.5;entryY=0;entryDx=0;entryDy=0;fontSize=12;startSize=8;endSize=8;strokeWidth=3;strokeColor=#000000;" parent="1" source="sSrPACaevmgML470upXC-19" target="chtsY7g3nfTkQcAFf8iY-6" edge="1">
          <mxGeometry relative="1" as="geometry">
            <mxPoint x="500" y="-94" as="sourcePoint" />
          </mxGeometry>
        </mxCell>
        <mxCell id="chtsY7g3nfTkQcAFf8iY-37" style="edgeStyle=none;curved=1;rounded=0;orthogonalLoop=1;jettySize=auto;html=1;exitX=0.5;exitY=1;exitDx=0;exitDy=0;entryX=0.5;entryY=0;entryDx=0;entryDy=0;fontSize=12;startSize=8;endSize=8;strokeWidth=3;strokeColor=#000000;" parent="1" source="sSrPACaevmgML470upXC-19" target="chtsY7g3nfTkQcAFf8iY-11" edge="1">
          <mxGeometry relative="1" as="geometry">
            <mxPoint x="557" y="-92" as="sourcePoint" />
          </mxGeometry>
        </mxCell>
        <mxCell id="chtsY7g3nfTkQcAFf8iY-38" style="edgeStyle=none;curved=1;rounded=0;orthogonalLoop=1;jettySize=auto;html=1;exitX=0.5;exitY=1;exitDx=0;exitDy=0;entryX=0.5;entryY=0;entryDx=0;entryDy=0;fontSize=12;startSize=8;endSize=8;strokeWidth=3;strokeColor=#000000;" parent="1" source="sSrPACaevmgML470upXC-19" target="chtsY7g3nfTkQcAFf8iY-13" edge="1">
          <mxGeometry relative="1" as="geometry">
            <mxPoint x="558" y="-90" as="sourcePoint" />
          </mxGeometry>
        </mxCell>
        <mxCell id="chtsY7g3nfTkQcAFf8iY-39" style="edgeStyle=none;curved=1;rounded=0;orthogonalLoop=1;jettySize=auto;html=1;exitX=0.5;exitY=1;exitDx=0;exitDy=0;entryX=0.5;entryY=0;entryDx=0;entryDy=0;fontSize=12;startSize=8;endSize=8;strokeWidth=3;strokeColor=#000000;" parent="1" source="sSrPACaevmgML470upXC-19" target="chtsY7g3nfTkQcAFf8iY-14" edge="1">
          <mxGeometry relative="1" as="geometry">
            <mxPoint x="550" y="-94" as="sourcePoint" />
          </mxGeometry>
        </mxCell>
        <mxCell id="sSrPACaevmgML470upXC-18" style="rounded=0;orthogonalLoop=1;jettySize=auto;html=1;strokeWidth=3;exitX=0.5;exitY=1;exitDx=0;exitDy=0;" edge="1" parent="1" source="sSrPACaevmgML470upXC-19" target="chtsY7g3nfTkQcAFf8iY-4">
          <mxGeometry relative="1" as="geometry">
            <mxPoint x="483" y="-98" as="sourcePoint" />
          </mxGeometry>
        </mxCell>
        <mxCell id="chtsY7g3nfTkQcAFf8iY-4" value="일련번호" style="ellipse;whiteSpace=wrap;html=1;align=center;fontStyle=4;fontSize=16;strokeWidth=3;strokeColor=#000000;" parent="1" vertex="1">
          <mxGeometry x="162" y="141" width="100" height="40" as="geometry" />
        </mxCell>
        <mxCell id="chtsY7g3nfTkQcAFf8iY-5" value="거래일자" style="ellipse;whiteSpace=wrap;html=1;align=center;fontSize=16;strokeWidth=3;strokeColor=#000000;" parent="1" vertex="1">
          <mxGeometry x="275" y="141" width="100" height="40" as="geometry" />
        </mxCell>
        <mxCell id="chtsY7g3nfTkQcAFf8iY-6" value="거래시각" style="ellipse;whiteSpace=wrap;html=1;align=center;fontSize=16;strokeWidth=3;strokeColor=#000000;" parent="1" vertex="1">
          <mxGeometry x="388" y="141" width="100" height="40" as="geometry" />
        </mxCell>
        <mxCell id="chtsY7g3nfTkQcAFf8iY-10" value="거래구분" style="ellipse;whiteSpace=wrap;html=1;align=center;fontSize=16;strokeWidth=3;strokeColor=#000000;" parent="1" vertex="1">
          <mxGeometry x="502" y="141" width="100" height="40" as="geometry" />
        </mxCell>
        <mxCell id="chtsY7g3nfTkQcAFf8iY-11" value="수량" style="ellipse;whiteSpace=wrap;html=1;align=center;fontSize=16;strokeWidth=3;strokeColor=#000000;" parent="1" vertex="1">
          <mxGeometry x="609" y="141" width="100" height="40" as="geometry" />
        </mxCell>
        <mxCell id="chtsY7g3nfTkQcAFf8iY-13" value="매입단가" style="ellipse;whiteSpace=wrap;html=1;align=center;fontSize=16;strokeWidth=3;strokeColor=#000000;" parent="1" vertex="1">
          <mxGeometry x="715" y="141" width="100" height="40" as="geometry" />
        </mxCell>
        <mxCell id="chtsY7g3nfTkQcAFf8iY-14" value="매출단가" style="ellipse;whiteSpace=wrap;html=1;align=center;fontSize=16;strokeWidth=3;strokeColor=#000000;" parent="1" vertex="1">
          <mxGeometry x="828" y="141" width="100" height="40" as="geometry" />
        </mxCell>
        <mxCell id="chtsY7g3nfTkQcAFf8iY-36" style="edgeStyle=none;curved=1;rounded=0;orthogonalLoop=1;jettySize=auto;html=1;exitX=0.5;exitY=1;exitDx=0;exitDy=0;entryX=0.57;entryY=0.05;entryDx=0;entryDy=0;entryPerimeter=0;fontSize=12;startSize=8;endSize=8;strokeWidth=3;strokeColor=#000000;" parent="1" source="sSrPACaevmgML470upXC-19" target="chtsY7g3nfTkQcAFf8iY-10" edge="1">
          <mxGeometry relative="1" as="geometry">
            <mxPoint x="550" y="-94" as="sourcePoint" />
          </mxGeometry>
        </mxCell>
        <mxCell id="sSrPACaevmgML470upXC-10" style="rounded=0;orthogonalLoop=1;jettySize=auto;html=1;exitX=0.36;exitY=1.05;exitDx=0;exitDy=0;strokeWidth=3;exitPerimeter=0;" edge="1" parent="1" source="sSrPACaevmgML470upXC-2" target="sSrPACaevmgML470upXC-4">
          <mxGeometry relative="1" as="geometry">
            <mxPoint x="-79" y="-52" as="sourcePoint" />
          </mxGeometry>
        </mxCell>
        <mxCell id="sSrPACaevmgML470upXC-11" style="rounded=0;orthogonalLoop=1;jettySize=auto;html=1;exitX=0.42;exitY=0.95;exitDx=0;exitDy=0;exitPerimeter=0;strokeWidth=3;" edge="1" parent="1" source="sSrPACaevmgML470upXC-2" target="sSrPACaevmgML470upXC-5">
          <mxGeometry relative="1" as="geometry" />
        </mxCell>
        <mxCell id="sSrPACaevmgML470upXC-12" style="rounded=0;orthogonalLoop=1;jettySize=auto;html=1;exitX=0.5;exitY=1;exitDx=0;exitDy=0;strokeWidth=3;" edge="1" parent="1" source="sSrPACaevmgML470upXC-2" target="sSrPACaevmgML470upXC-6">
          <mxGeometry relative="1" as="geometry" />
        </mxCell>
        <mxCell id="sSrPACaevmgML470upXC-13" style="rounded=0;orthogonalLoop=1;jettySize=auto;html=1;exitX=0.5;exitY=1;exitDx=0;exitDy=0;entryX=0.5;entryY=0;entryDx=0;entryDy=0;strokeWidth=3;" edge="1" parent="1" source="sSrPACaevmgML470upXC-2" target="sSrPACaevmgML470upXC-7">
          <mxGeometry relative="1" as="geometry" />
        </mxCell>
        <mxCell id="sSrPACaevmgML470upXC-14" style="rounded=0;orthogonalLoop=1;jettySize=auto;html=1;exitX=0.44;exitY=0.975;exitDx=0;exitDy=0;strokeWidth=3;exitPerimeter=0;" edge="1" parent="1" source="sSrPACaevmgML470upXC-2" target="sSrPACaevmgML470upXC-3">
          <mxGeometry relative="1" as="geometry" />
        </mxCell>
        <mxCell id="sSrPACaevmgML470upXC-2" value="상품" style="whiteSpace=wrap;html=1;align=center;strokeWidth=3;" vertex="1" parent="1">
          <mxGeometry x="-100" y="-115" width="100" height="40" as="geometry" />
        </mxCell>
        <mxCell id="sSrPACaevmgML470upXC-3" value="상품코드" style="ellipse;whiteSpace=wrap;html=1;align=center;fontStyle=4;strokeWidth=3;" vertex="1" parent="1">
          <mxGeometry x="-339" y="2" width="100" height="40" as="geometry" />
        </mxCell>
        <mxCell id="sSrPACaevmgML470upXC-4" value="상품명" style="ellipse;whiteSpace=wrap;html=1;align=center;strokeWidth=3;" vertex="1" parent="1">
          <mxGeometry x="-229" width="100" height="40" as="geometry" />
        </mxCell>
        <mxCell id="sSrPACaevmgML470upXC-5" value="품목" style="ellipse;whiteSpace=wrap;html=1;align=center;strokeWidth=3;" vertex="1" parent="1">
          <mxGeometry x="-108" width="100" height="40" as="geometry" />
        </mxCell>
        <mxCell id="sSrPACaevmgML470upXC-6" value="규격" style="ellipse;whiteSpace=wrap;html=1;align=center;strokeWidth=3;" vertex="1" parent="1">
          <mxGeometry x="14" width="100" height="40" as="geometry" />
        </mxCell>
        <mxCell id="sSrPACaevmgML470upXC-7" value="제조사" style="ellipse;whiteSpace=wrap;html=1;align=center;strokeWidth=3;" vertex="1" parent="1">
          <mxGeometry x="136" y="2" width="100" height="40" as="geometry" />
        </mxCell>
        <mxCell id="sSrPACaevmgML470upXC-15" value="" style="edgeStyle=entityRelationEdgeStyle;fontSize=12;html=1;endArrow=ERoneToMany;rounded=0;exitX=0.41;exitY=0;exitDx=0;exitDy=0;exitPerimeter=0;entryX=0.058;entryY=0.55;entryDx=0;entryDy=0;fillColor=#d5e8d4;strokeColor=#82b366;strokeWidth=3;entryPerimeter=0;" edge="1" parent="1" source="sSrPACaevmgML470upXC-2" target="sSrPACaevmgML470upXC-19">
          <mxGeometry width="100" height="100" relative="1" as="geometry">
            <mxPoint x="402" y="271" as="sourcePoint" />
            <mxPoint x="475" y="-134" as="targetPoint" />
          </mxGeometry>
        </mxCell>
        <mxCell id="sSrPACaevmgML470upXC-19" value="매입매출" style="shape=rhombus;perimeter=rhombusPerimeter;whiteSpace=wrap;html=1;align=center;strokeWidth=3;" vertex="1" parent="1">
          <mxGeometry x="466" y="-192" width="120" height="60" as="geometry" />
        </mxCell>
        <mxCell id="sSrPACaevmgML470upXC-20" value="상품(테이블)과 매입매출간에 관계설정&amp;nbsp;&lt;br style=&quot;font-size: 15px;&quot;&gt;매입매출 테이블을 Relation으로 변환&lt;br style=&quot;font-size: 15px;&quot;&gt;상품(테이블)의 상품코드 칼럼이&lt;br style=&quot;font-size: 15px;&quot;&gt;매입매출 Relation에 자동으로 추가된다" style="whiteSpace=wrap;html=1;strokeWidth=2;fontSize=15;" vertex="1" parent="1">
          <mxGeometry x="21" y="-360" width="308" height="127" as="geometry" />
        </mxCell>
        <mxCell id="sSrPACaevmgML470upXC-28" style="rounded=0;orthogonalLoop=1;jettySize=auto;html=1;exitX=0.5;exitY=1;exitDx=0;exitDy=0;entryX=0.5;entryY=0;entryDx=0;entryDy=0;strokeWidth=4;" edge="1" parent="1" source="sSrPACaevmgML470upXC-21" target="sSrPACaevmgML470upXC-23">
          <mxGeometry relative="1" as="geometry" />
        </mxCell>
        <mxCell id="sSrPACaevmgML470upXC-29" style="rounded=0;orthogonalLoop=1;jettySize=auto;html=1;exitX=0.5;exitY=1;exitDx=0;exitDy=0;strokeWidth=4;" edge="1" parent="1" source="sSrPACaevmgML470upXC-21" target="sSrPACaevmgML470upXC-24">
          <mxGeometry relative="1" as="geometry" />
        </mxCell>
        <mxCell id="sSrPACaevmgML470upXC-30" style="rounded=0;orthogonalLoop=1;jettySize=auto;html=1;exitX=0.5;exitY=1;exitDx=0;exitDy=0;strokeWidth=4;" edge="1" parent="1" source="sSrPACaevmgML470upXC-21" target="sSrPACaevmgML470upXC-25">
          <mxGeometry relative="1" as="geometry" />
        </mxCell>
        <mxCell id="sSrPACaevmgML470upXC-31" style="rounded=0;orthogonalLoop=1;jettySize=auto;html=1;exitX=0.5;exitY=1;exitDx=0;exitDy=0;strokeWidth=4;" edge="1" parent="1" source="sSrPACaevmgML470upXC-21" target="sSrPACaevmgML470upXC-26">
          <mxGeometry relative="1" as="geometry" />
        </mxCell>
        <mxCell id="sSrPACaevmgML470upXC-32" style="rounded=0;orthogonalLoop=1;jettySize=auto;html=1;exitX=0.5;exitY=1;exitDx=0;exitDy=0;strokeWidth=4;" edge="1" parent="1" source="sSrPACaevmgML470upXC-21" target="sSrPACaevmgML470upXC-27">
          <mxGeometry relative="1" as="geometry" />
        </mxCell>
        <mxCell id="sSrPACaevmgML470upXC-21" value="거래처" style="whiteSpace=wrap;html=1;align=center;strokeWidth=4;" vertex="1" parent="1">
          <mxGeometry x="1184" y="-152" width="100" height="40" as="geometry" />
        </mxCell>
        <mxCell id="sSrPACaevmgML470upXC-22" value="Attribute" style="ellipse;whiteSpace=wrap;html=1;align=center;fontStyle=4;strokeWidth=4;" vertex="1" parent="1">
          <mxGeometry x="940" y="-6" width="100" height="40" as="geometry" />
        </mxCell>
        <mxCell id="sSrPACaevmgML470upXC-23" value="거래처코드" style="ellipse;whiteSpace=wrap;html=1;align=center;fontStyle=4;strokeWidth=4;" vertex="1" parent="1">
          <mxGeometry x="940" y="-6" width="100" height="40" as="geometry" />
        </mxCell>
        <mxCell id="sSrPACaevmgML470upXC-24" value="거래처명" style="ellipse;whiteSpace=wrap;html=1;align=center;strokeWidth=4;" vertex="1" parent="1">
          <mxGeometry x="1060" y="-8" width="100" height="40" as="geometry" />
        </mxCell>
        <mxCell id="sSrPACaevmgML470upXC-25" value="대표자명" style="ellipse;whiteSpace=wrap;html=1;align=center;strokeWidth=4;" vertex="1" parent="1">
          <mxGeometry x="1184" y="-6" width="100" height="40" as="geometry" />
        </mxCell>
        <mxCell id="sSrPACaevmgML470upXC-26" value="전화번호" style="ellipse;whiteSpace=wrap;html=1;align=center;strokeWidth=4;" vertex="1" parent="1">
          <mxGeometry x="1303" y="-6" width="100" height="40" as="geometry" />
        </mxCell>
        <mxCell id="sSrPACaevmgML470upXC-27" value="주소" style="ellipse;whiteSpace=wrap;html=1;align=center;strokeWidth=4;" vertex="1" parent="1">
          <mxGeometry x="1422" y="-6" width="100" height="40" as="geometry" />
        </mxCell>
        <mxCell id="sSrPACaevmgML470upXC-33" value="" style="edgeStyle=entityRelationEdgeStyle;fontSize=12;html=1;endArrow=ERoneToMany;rounded=0;exitX=0;exitY=0.5;exitDx=0;exitDy=0;entryX=1;entryY=0.5;entryDx=0;entryDy=0;fillColor=#d5e8d4;strokeColor=#82b366;strokeWidth=3;" edge="1" parent="1" source="sSrPACaevmgML470upXC-21" target="sSrPACaevmgML470upXC-19">
          <mxGeometry width="100" height="100" relative="1" as="geometry">
            <mxPoint x="631" y="-143" as="sourcePoint" />
            <mxPoint x="1170" y="-158" as="targetPoint" />
            <Array as="points">
              <mxPoint x="904" y="-127" />
            </Array>
          </mxGeometry>
        </mxCell>
      </root>
    </mxGraphModel>
  </diagram>
</mxfile>
